<?xml version="1.0" encoding="utf-8"?>
<!-- Svg Vector Icons : http://www.onlinewebfonts.com/icon -->
<!DOCTYPE svg PUBLIC "-//W3C//DTD SVG 1.1//EN" "http://www.w3.org/Graphics/SVG/1.1/DTD/svg11.dtd">
<svg version="1.1" xmlns="http://www.w3.org/2000/svg" xmlns:xlink="http://www.w3.org/1999/xlink" x="0px" y="0px" viewBox="0 0 1000 1000" enable-background="new 0 0 1000 1000" xml:space="preserve">
<metadata> Svg Vector Icons : http://www.onlinewebfonts.com/icon </metadata>
<g><g transform="translate(0.000000,512.000000) scale(0.100000,-0.100000)"><path d="M9418.6,4955.5C8007,4660.8,6533.8,4117.8,5721.2,3592.1C4818,3006.7,4275,2186.3,4190.2,1287l-13.5-146.4l-138.6,129c-390.9,371.7-914.7,575.8-1648.4,641.3c-614.3,53.9-1710,1.9-2237.7-107.8l-52-9.6l30.8-100.1c52-182.9,271.5-751,396.7-1034.1C741.3,179.7,1018.6-346,1172.6-563.6c269.6-377.4,604.7-623.9,982.1-724.1c175.2-48.1,537.3-55.8,735.6-19.3c406.3,78.9,855,285,1280.6,589.3c80.9,57.8,154.1,105.9,161.8,105.9c36.6,0,204.1-1188.2,250.3-1790.9c80.9-1020.6,9.6-1825.6-182.9-2031.6l-48.1-52l82.8-152.1c46.2-82.8,94.4-152.1,107.8-152.1c44.3,0,192.6,167.5,250.3,283.1c115.5,231.1,171.4,535.3,190.7,1036c21.2,643.2-84.7,1790.9-261.9,2811.5c-19.3,117.5-34.7,213.8-30.8,217.6c3.9,3.9,125.2-32.7,269.6-82.8c489.1-163.7,968.6-271.5,1423.1-317.7c329.3-34.7,907-15.4,1157.4,38.5C8376.8-627.2,8942.9-197.7,9308.8,534c165.6,331.2,260,660.5,358.2,1247.9c146.3,860.8,233,1919.9,233,2850.1v398.6l-61.7-1.9C9803.7,5028.7,9615,4995.9,9418.6,4955.5z M9534.1,4468.3c0-198.3-34.7-920.5-57.8-1228.6c-53.9-674-182.9-1559.8-288.9-1973.9C8942.9,318.3,8378.7-251.7,7498.6-438.5c-363.9-77-955.1-73.2-1448.1,11.5c-356.3,59.7-1124.6,277.3-1184.3,335.1c-19.3,19.2,80.9,209.9,234.9,442.9c144.4,217.6,433.3,506.5,643.2,643.2c92.5,59.7,396.7,219.5,674,356.3c279.2,134.8,597,300.4,706.8,365.9c221.5,131,566.1,385.1,739.5,545l111.7,102.1l-123.3,134.8l-123.3,132.9l-150.2-130.9c-369.8-321.6-595-462.2-1309.5-810.7c-306.2-152.1-641.3-327.4-741.4-394.8c-256.1-167.5-568.1-485.3-751-766.4c-92.4-138.7-148.3-208-156-190.7c-30.8,52-75.1,442.9-75.1,650.9c0,1045.7,604.7,1908.4,1771.7,2526.5c519.9,277.3,1444.3,627.8,2243.5,851.2c215.7,61.6,916.6,236.9,959,238.8C9528.3,4606.9,9534.1,4543.4,9534.1,4468.3z M2553.4,1527.7C3366,1414.1,3899.4,1063.6,4132.5,484c36.6-88.6,63.5-163.7,59.7-165.6c-3.9-3.8-44.3,15.4-90.5,40.4c-204.1,115.5-573.9,219.5-951.3,271.5c-198.3,27-747.2,67.4-928.2,67.4h-82.8V514.8c0-132.9,5.8-182.9,25-182.9c204.1-1.9,814.6-44.3,968.6-67.4c464.1-69.3,810.7-196.4,951.3-350.5c107.8-115.5,102.1-157.9-32.7-261.9c-568.1-435.2-1190.1-666.3-1642.6-608.5c-173.3,21.2-242.6,42.4-392.8,117.5c-338.9,169.5-552.7,435.2-907,1134.2c-198.3,389-510.3,1115-510.3,1184.3c0,25,59.7,34.7,423.7,65.5C1267,1566.2,2358.9,1552.7,2553.4,1527.7z"/></g></g>
</svg>