<?xml version="1.0" encoding="utf-8"?>
<!-- Svg Vector Icons : http://www.onlinewebfonts.com/icon -->
<!DOCTYPE svg PUBLIC "-//W3C//DTD SVG 1.1//EN" "http://www.w3.org/Graphics/SVG/1.1/DTD/svg11.dtd">
<svg version="1.1" xmlns="http://www.w3.org/2000/svg" xmlns:xlink="http://www.w3.org/1999/xlink" x="0px" y="0px" viewBox="0 0 1000 1000" enable-background="new 0 0 1000 1000" xml:space="preserve">
<metadata> Svg Vector Icons : http://www.onlinewebfonts.com/icon </metadata>
<g><path d="M913,264.4c-42-0.7-74.4-34-74.1-76.3c0.3-42.2,33.2-74.9,75.5-74.9c43.5,0,76.6,34.1,75.5,77.8C989,233,955.3,265.1,913,264.4z"/><path d="M741.8,230H51.2C28.5,230,10,211.5,10,188.8l0,0c0-22.6,18.5-41.2,41.2-41.2h690.7c22.6,0,41.2,18.5,41.2,41.2l0,0C783,211.5,764.4,230,741.8,230z"/><path d="M551.7,548.9H52.9C29.3,548.9,10,529.6,10,506l0,0c0-23.6,19.3-42.9,42.9-42.9h498.8c23.6,0,42.9,19.3,42.9,42.9l0,0C594.5,529.6,575.2,548.9,551.7,548.9z"/><path d="M381.3,886.8H53.9C29.7,886.8,10,867,10,842.9l0,0c0-24.1,19.7-43.9,43.9-43.9h327.4c24.1,0,43.9,19.7,43.9,43.9l0,0C425.1,867,405.4,886.8,381.3,886.8z"/></g>
</svg>