<?xml version="1.0" encoding="utf-8"?>
<!-- Svg Vector Icons : http://www.onlinewebfonts.com/icon -->
<!DOCTYPE svg PUBLIC "-//W3C//DTD SVG 1.1//EN" "http://www.w3.org/Graphics/SVG/1.1/DTD/svg11.dtd">
<svg version="1.1" xmlns="http://www.w3.org/2000/svg" xmlns:xlink="http://www.w3.org/1999/xlink" x="0px" y="0px" viewBox="0 0 1000 1000" enable-background="new 0 0 1000 1000" xml:space="preserve">
<metadata> Svg Vector Icons : http://www.onlinewebfonts.com/icon </metadata>
<g><path d="M639.9,850.1c-0.4,43.2-17.1,78.2-48.9,106.2c-26.2,23-57,33.5-91.7,33.7c-78.6,0.4-140.9-67.2-139.3-139.9c-2.3,0-4.6,0-6.8,0c-78.9,0-157.8,0-236.6,0c-37.3,0-67.4-27.5-71-64.4c-0.3-3.1-0.3-5.7,2.6-8.2C125.9,711.9,172.3,627.4,197,530c10.4-40.8,16.8-82.4,19.7-124.4c1.9-28.1,2.8-56.4,3.5-84.5c1.2-43.5,14.9-82.8,39.2-118.5C304.2,137,366.3,98.8,444.3,85.9c2.3-0.4,4.6-0.9,7.4-1.4c-8.8-27.5-3.4-50.8,21.9-66.4c18.5-11.4,38.4-10.7,56.1,1.9c22.7,16.1,27.4,38.6,18.6,64.6c23.8,3.6,46.8,9,68.8,18.1c74.1,30.5,125.2,83.3,152.5,158.7c7.9,21.9,10.3,45,10.3,68.2c0.2,70.5,7.4,140.3,25.2,208.7c18.5,71.2,50.8,135.5,98.5,191.6c14.3,16.8,31.4,31.4,47.4,46.7c2.8,2.7,4,5,3.6,8.8c-3.9,37.5-33.7,64.6-71.4,64.6c-78.7,0-157.4,0-236.1,0C644.9,850.1,642.7,850.1,639.9,850.1z M496.1,946.2c0,0,0.7,0,1.4,0c7.8,0.2,11.1-2.3,11.2-8.5c0.2-6.1-2.7-8.2-10.3-9c-7.7-0.9-15.6-1.7-23-3.9c-26.2-8-53.6-35.3-54.2-73.8c-0.1-6.9-3-9.7-9.1-9.6c-5.8,0.2-8.5,3.4-8.4,10.3C404.9,903.1,444.3,943.8,496.1,946.2z"/></g>
</svg>