<?xml version="1.0" encoding="utf-8"?>
<!-- Svg Vector Icons : http://www.onlinewebfonts.com/icon -->
<!DOCTYPE svg PUBLIC "-//W3C//DTD SVG 1.1//EN" "http://www.w3.org/Graphics/SVG/1.1/DTD/svg11.dtd">
<svg version="1.1" xmlns="http://www.w3.org/2000/svg" xmlns:xlink="http://www.w3.org/1999/xlink" x="0px" y="0px" viewBox="0 0 1000 1000" enable-background="new 0 0 1000 1000" xml:space="preserve">
<metadata> Svg Vector Icons : http://www.onlinewebfonts.com/icon </metadata>
<g><g transform="translate(0.000000,511.000000) scale(0.100000,-0.100000)"><path d="M4494,4985.8c-543.1-55.2-1146-230.1-1652.2-480.9c-998.7-494.7-1742-1235.7-2234.4-2234.4C-582.3-127.3,391.1-3042.9,2784.3-4257.9c2413.9-1226.5,5357-262.3,6583.5,2153.9c961.9,1891.5,596,4178.9-904.3,5676.9C7425.7,4613,5962.1,5133.1,4494,4985.8z M5310.9,3043.6c536.2-112.7,1001-563.8,1127.6-1097.6c43.7-186.4,43.7-524.7,0-697.2c-119.7-469.4-471.7-867.5-918.1-1035.5c-701.8-264.6-1500.3,46-1831.7,713.3c-133.5,269.2-168,432.6-156.5,736.4c18.4,421.1,165.7,743.3,474,1026.3C4356,3009.1,4843.8,3140.3,5310.9,3043.6z M4351.4-178c414.2-172.6,945.8-163.4,1366.9,27.6l131.2,57.5l253.1-220.9c563.8-497,823.8-885.9,968.8-1454.3c43.7-165.7,92.1-533.8,92.1-688v-80.5H5000.3H2837.2v98.9c0,301.4,96.7,764,218.6,1056.2c85.1,200.2,276.1,497,439.5,683.4c174.9,195.6,637.4,600.6,676.5,591.4C4190.3-113.5,4270.8-143.4,4351.4-178z"/></g></g>
</svg>